<svg xmlns="http://www.w3.org/2000/svg" width="800" height="800" class="logo" viewBox="0 0 22 22">

  <!-- Left person -->
  <path fill="#8BF" transform="translate(2, 2)" d="M7 14m4-6m-5.784 6A2.24 2.24 0 0 1 5 13c0-1.355.68-2.75 1.936-3.72A6.3 6.3 0 0 0 5 9c-4 0-5 3-5 4s1 1 1 1zM4.5 8a2.5 2.5 0 1 0 0-5 2.5 2.5 0 0 0 0 5" />

  <!-- Right body -->
  <path fill="#ADF" transform="translate(5, 2)" d=" M3 13c0 1 1 1 1 1h4.256A4.5 4.5 0 0 1 8 12.5a4.5 4.5 0 0 1 1.544-3.393Q8.844 9.002 8 9c-4 0-5 3-5 4" />
  
  <!-- Right head -->
  <path fill="#ADF" transform="translate(5, 2)" d="M11 5 a3 3 0 1 1-6 0 3 3 0 0 1 6 0" />

  <!-- Checkmark -->
  <path fill="#6E3" transform="translate(5, 2)" d="M12.5 16a3.5 3.5 0 1 0 0-7 3.5 3.5 0 0 0 0 7m1.679-4.493-1.335 2.226a.75.75 0 0 1-1.174.144l-.774-.773a.5.5 0 0 1 .708-.708l.547.548 1.17-1.951a.5.5 0 1 1 .858.514M11 5"/>
</svg>